<svg width="75" height="75" viewBox="0 0 75 75" fill="none" xmlns="http://www.w3.org/2000/svg">
<g clip-path="url(#clip0_142_190)">
<path d="M72.3482 25.3992C76.8343 20.9131 74.7886 15.6733 72.3482 13.1252L61.5815 2.35851C57.0595 -2.12761 51.8556 -0.0819361 49.3075 2.35851L43.2063 8.49552H33.9111C27.0922 8.49552 23.1444 12.0844 21.1346 16.2116L5.19996 32.1463V46.5019L2.65185 49.0141C-1.83427 53.5361 0.211399 58.74 2.65185 61.2881L13.4185 72.0548C15.3565 73.9928 17.4381 74.7106 19.412 74.7106C21.9601 74.7106 24.2929 73.4545 25.6925 72.0548L35.3826 62.3289H48.2667C54.3678 62.3289 57.4543 58.5247 58.5668 54.7922C62.6223 53.7156 64.8474 50.6291 65.7446 47.6145C71.3074 46.1789 73.3889 40.9032 73.3889 37.2067V26.44H71.2715L72.3482 25.3992ZM66.2112 37.2067C66.2112 38.8217 65.5293 40.7956 62.6223 40.7956H59.0334V44.3845C59.0334 45.9995 58.3515 47.9734 55.4445 47.9734H51.8556V51.5622C51.8556 53.1772 51.1737 55.1511 48.2667 55.1511H32.4397L20.6681 66.9227C19.5555 67.9635 18.9095 67.3534 18.5148 66.9586L7.78396 56.2637C6.74318 55.1511 7.3533 54.5051 7.74808 54.1104L12.3777 49.4448V35.0892L19.5555 27.9114V33.6178C19.5555 37.9603 22.4267 44.3845 30.3222 44.3845C38.2178 44.3845 41.0889 37.9603 41.0889 33.6178H66.2112V37.2067ZM67.2519 20.303L61.1508 26.44H33.9111V33.6178C33.9111 35.2328 33.2292 37.2067 30.3222 37.2067C27.4152 37.2067 26.7333 35.2328 26.7333 33.6178V22.8511C26.7333 21.2002 27.3434 15.6733 33.9111 15.6733H46.1492L54.3319 7.49063C55.4445 6.44985 56.0905 7.05996 56.4853 7.45474L67.216 18.1496C68.2568 19.2622 67.6467 19.9082 67.2519 20.303Z" fill="#FF650C"/>
</g>
<defs>
<clipPath id="clip0_142_190">
<rect width="75" height="75" fill="white"/>
</clipPath>
</defs>
</svg>
