<svg width="75" height="75" viewBox="0 0 75 75" fill="none" xmlns="http://www.w3.org/2000/svg">
<path d="M23.4426 55.8346L21.3934 57.8838C21.1202 58.157 20.806 58.2936 20.4508 58.2936C20.0956 58.2936 19.7814 58.157 19.5082 57.8838L0.409836 38.7854C0.136612 38.5122 0 38.198 0 37.8428C0 37.4876 0.136612 37.1734 0.409836 36.9002L19.5082 17.8018C19.7814 17.5286 20.0956 17.3919 20.4508 17.3919C20.806 17.3919 21.1202 17.5286 21.3934 17.8018L23.4426 19.851C23.7158 20.1242 23.8525 20.4384 23.8525 20.7936C23.8525 21.1488 23.7158 21.463 23.4426 21.7362L7.33607 37.8428L23.4426 53.9493C23.7158 54.2226 23.8525 54.5368 23.8525 54.892C23.8525 55.2472 23.7158 55.5614 23.4426 55.8346ZM47.6639 12.1051L32.377 65.0149C32.2678 65.3701 32.056 65.6365 31.7418 65.8141C31.4276 65.9917 31.1066 66.0258 30.7787 65.9166L28.2377 65.2198C27.8825 65.1105 27.6161 64.8988 27.4385 64.5846C27.2609 64.2704 27.2268 63.9357 27.3361 63.5805L42.623 10.6706C42.7322 10.3154 42.944 10.049 43.2582 9.87145C43.5724 9.69386 43.8934 9.6597 44.2213 9.76899L46.7623 10.4657C47.1175 10.575 47.3839 10.7868 47.5615 11.101C47.7391 11.4152 47.7732 11.7499 47.6639 12.1051ZM74.5902 38.7854L55.4918 57.8838C55.2186 58.157 54.9044 58.2936 54.5492 58.2936C54.194 58.2936 53.8798 58.157 53.6066 57.8838L51.5574 55.8346C51.2842 55.5614 51.1475 55.2472 51.1475 54.892C51.1475 54.5368 51.2842 54.2226 51.5574 53.9493L67.6639 37.8428L51.5574 21.7362C51.2842 21.463 51.1475 21.1488 51.1475 20.7936C51.1475 20.4384 51.2842 20.1242 51.5574 19.851L53.6066 17.8018C53.8798 17.5286 54.194 17.3919 54.5492 17.3919C54.9044 17.3919 55.2186 17.5286 55.4918 17.8018L74.5902 36.9002C74.8634 37.1734 75 37.4876 75 37.8428C75 38.198 74.8634 38.5122 74.5902 38.7854Z" fill="#FF650C"/>
</svg>
