<svg width="75" height="75" viewBox="0 0 75 75" fill="none" xmlns="http://www.w3.org/2000/svg">
<g clip-path="url(#clip0_142_200)">
<path d="M60.4167 37.2065C58.7591 37.2065 57.1694 36.5481 55.9972 35.376C54.8251 34.2039 54.1667 32.6141 54.1667 30.9565C54.1667 29.2989 54.8251 27.7092 55.9972 26.5371C57.1694 25.365 58.7591 24.7065 60.4167 24.7065C62.0743 24.7065 63.664 25.365 64.8361 26.5371C66.0082 27.7092 66.6667 29.2989 66.6667 30.9565C66.6667 32.6141 66.0082 34.2039 64.8361 35.376C63.664 36.5481 62.0743 37.2065 60.4167 37.2065ZM47.9167 20.5399C46.2591 20.5399 44.6693 19.8814 43.4972 18.7093C42.3251 17.5372 41.6667 15.9475 41.6667 14.2899C41.6667 12.6323 42.3251 11.0426 43.4972 9.87046C44.6693 8.69836 46.2591 8.03988 47.9167 8.03988C49.5743 8.03988 51.164 8.69836 52.3361 9.87046C53.5082 11.0426 54.1667 12.6323 54.1667 14.2899C54.1667 15.9475 53.5082 17.5372 52.3361 18.7093C51.164 19.8814 49.5743 20.5399 47.9167 20.5399ZM27.0833 20.5399C25.4257 20.5399 23.836 19.8814 22.6639 18.7093C21.4918 17.5372 20.8333 15.9475 20.8333 14.2899C20.8333 12.6323 21.4918 11.0426 22.6639 9.87046C23.836 8.69836 25.4257 8.03988 27.0833 8.03988C28.7409 8.03988 30.3306 8.69836 31.5028 9.87046C32.6749 11.0426 33.3333 12.6323 33.3333 14.2899C33.3333 15.9475 32.6749 17.5372 31.5028 18.7093C30.3306 19.8814 28.7409 20.5399 27.0833 20.5399ZM14.5833 37.2065C12.9257 37.2065 11.336 36.5481 10.1639 35.376C8.99181 34.2039 8.33333 32.6141 8.33333 30.9565C8.33333 29.2989 8.99181 27.7092 10.1639 26.5371C11.336 25.365 12.9257 24.7065 14.5833 24.7065C16.2409 24.7065 17.8306 25.365 19.0028 26.5371C20.1749 27.7092 20.8333 29.2989 20.8333 30.9565C20.8333 32.6141 20.1749 34.2039 19.0028 35.376C17.8306 36.5481 16.2409 37.2065 14.5833 37.2065ZM37.5 -0.293457C27.5544 -0.293457 18.0161 3.65742 10.9835 10.69C3.95088 17.7227 0 27.2609 0 37.2065C0 47.1522 3.95088 56.6904 10.9835 63.723C18.0161 70.7557 27.5544 74.7065 37.5 74.7065C39.1576 74.7065 40.7473 74.0481 41.9194 72.876C43.0915 71.7038 43.75 70.1141 43.75 68.4565C43.75 66.8315 43.125 65.3732 42.125 64.2899C41.1667 63.1649 40.5417 61.7065 40.5417 60.1232C40.5417 58.4656 41.2001 56.8759 42.3722 55.7038C43.5443 54.5317 45.1341 53.8732 46.7917 53.8732H54.1667C59.692 53.8732 64.9911 51.6783 68.8981 47.7713C72.8051 43.8643 75 38.5652 75 33.0399C75 14.6232 58.2083 -0.293457 37.5 -0.293457Z" fill="#FF650C"/>
</g>
<defs>
<clipPath id="clip0_142_200">
<rect width="75" height="75" fill="white"/>
</clipPath>
</defs>
</svg>
