<svg width="72" height="72" viewBox="0 0 72 72" fill="none" xmlns="http://www.w3.org/2000/svg">
<path d="M21 66C19.35 66 17.937 65.412 16.761 64.236C15.585 63.06 14.998 61.648 15 60C15 58.35 15.588 56.937 16.764 55.761C17.94 54.585 19.352 53.998 21 54C22.65 54 24.063 54.588 25.239 55.764C26.415 56.94 27.002 58.352 27 60C27 61.65 26.412 63.063 25.236 64.239C24.06 65.415 22.648 66.002 21 66ZM51 66C49.35 66 47.937 65.412 46.761 64.236C45.585 63.06 44.998 61.648 45 60C45 58.35 45.588 56.937 46.764 55.761C47.94 54.585 49.352 53.998 51 54C52.65 54 54.063 54.588 55.239 55.764C56.415 56.94 57.002 58.352 57 60C57 61.65 56.412 63.063 55.236 64.239C54.06 65.415 52.648 66.002 51 66ZM18.45 18L25.65 33H46.65L54.9 18H18.45ZM15.6 12H59.85C61 12 61.875 12.513 62.475 13.539C63.075 14.565 63.1 15.602 62.55 16.65L51.9 35.85C51.35 36.85 50.612 37.625 49.686 38.175C48.76 38.725 47.748 39 46.65 39H24.3L21 45H57V51H21C18.75 51 17.05 50.012 15.9 48.036C14.75 46.06 14.7 44.098 15.75 42.15L19.8 34.8L9 12H3V6H12.75L15.6 12Z" fill="#0C69FF"/>
</svg>
