<svg width="149" height="65" viewBox="0 0 149 65" fill="none" xmlns="http://www.w3.org/2000/svg">
<path d="M10.1862 52.4845C22.3839 49.2825 34.5746 46.1056 46.7499 42.7895C47.5949 42.565 48.4577 41.4008 48.7902 40.4944C56.5837 18.8232 72.0067 5.74644 94.2989 0.891341C98.0047 0.0840133 102.009 0.439099 106.147 1.96501C111.611 3.96662 113.914 9.38303 111.787 14.812C109.93 19.5602 106.375 22.8386 102.432 25.7664C93.6785 32.2181 83.7394 36.4245 73.6832 40.2746C67.3104 42.7173 60.8024 44.7715 54.1678 47.0876C54.7953 50.1768 57.6183 53.0383 60.5951 53.5942C66.2339 54.6727 69.2131 54.1496 73.8324 53.6497C88.3292 52.0842 101.86 47.0928 114.551 40.1678C123.997 35.0148 133.062 29.1895 142.291 23.6524C143.098 23.1746 143.876 22.6077 144.663 22.2051C145.891 21.574 146.965 21.4943 147.719 22.3781C148.596 23.1073 147.768 24.6321 147.256 25.4077C146.416 26.6861 145.288 27.8309 144.066 28.7334C124.924 43.1535 104.311 54.6016 80.4514 59.0758C75.2142 60.0521 69.7637 60.2404 64.4286 60.1099C56.7671 59.9008 50.8365 56.6631 48.488 48.5889C36.7718 51.2227 25.2269 53.823 13.4788 56.4749C17.2381 57.5179 20.797 58.5052 24.3809 59.4994C24.9824 59.6663 25.6048 59.758 26.1924 59.975C27.7867 60.5522 30.0324 60.8244 29.5292 63.2219C29.0399 65.5694 26.8526 64.9896 25.417 64.6183C18.1253 62.7844 10.8294 60.8683 3.63504 58.6835C0.698529 57.7878 -0.187705 55.4366 1.75229 53.1138C7.30228 46.3401 13.1934 39.7961 19.0957 33.3091C19.6413 32.7047 21.2184 31.9817 22.4523 33.0797C23.3242 34.0234 22.8263 35.7207 22.2711 36.4573C18.9075 40.8955 15.3392 45.1959 11.8142 49.5352C11.1949 50.3081 10.5255 51.0671 9.88111 51.833C8.60341 52.9361 9.22706 52.7312 10.1862 52.4845ZM53.8397 40.1948C53.5142 41.0762 55.1944 40.2737 55.4616 40.1859C69.4493 35.5911 83.2585 30.569 95.7484 22.6166C99.0904 20.4937 102.184 17.7083 104.73 14.6626C108.096 10.6032 106.362 6.64005 101.067 6.16983C97.6419 5.86746 93.9595 6.0065 90.6546 6.92506C76.6041 10.7736 63.1185 22.1206 57.9021 31.389C55.943 34.9482 55.651 36.0008 53.8397 40.1948Z" fill="#024EA9"/>
</svg>
