<svg width="72" height="72" viewBox="0 0 72 72" fill="none" xmlns="http://www.w3.org/2000/svg">
<path fill-rule="evenodd" clip-rule="evenodd" d="M42 21C41.2044 21 40.4413 21.3161 39.8787 21.8787C39.3161 22.4413 39 23.2044 39 24V48C39 48.7956 39.3161 49.5587 39.8787 50.1213C40.4413 50.6839 41.2044 51 42 51H54C54.7956 51 55.5587 50.6839 56.1213 50.1213C56.6839 49.5587 57 48.7956 57 48V24C57 23.2044 56.6839 22.4413 56.1213 21.8787C55.5587 21.3161 54.7956 21 54 21H42ZM51 27H45V45H51V27Z" fill="#0C69FF"/>
<path d="M18 21C17.2044 21 16.4413 21.3161 15.8787 21.8787C15.3161 22.4413 15 23.2044 15 24C15 24.7956 15.3161 25.5587 15.8787 26.1213C16.4413 26.6839 17.2044 27 18 27H30C30.7956 27 31.5587 26.6839 32.1213 26.1213C32.6839 25.5587 33 24.7956 33 24C33 23.2044 32.6839 22.4413 32.1213 21.8787C31.5587 21.3161 30.7956 21 30 21H18ZM18 33C17.2044 33 16.4413 33.3161 15.8787 33.8787C15.3161 34.4413 15 35.2044 15 36C15 36.7956 15.3161 37.5587 15.8787 38.1213C16.4413 38.6839 17.2044 39 18 39H30C30.7956 39 31.5587 38.6839 32.1213 38.1213C32.6839 37.5587 33 36.7956 33 36C33 35.2044 32.6839 34.4413 32.1213 33.8787C31.5587 33.3161 30.7956 33 30 33H18ZM15 48C15 47.2044 15.3161 46.4413 15.8787 45.8787C16.4413 45.3161 17.2044 45 18 45H30C30.7956 45 31.5587 45.3161 32.1213 45.8787C32.6839 46.4413 33 47.2044 33 48C33 48.7956 32.6839 49.5587 32.1213 50.1213C31.5587 50.6839 30.7956 51 30 51H18C17.2044 51 16.4413 50.6839 15.8787 50.1213C15.3161 49.5587 15 48.7956 15 48Z" fill="#0C69FF"/>
<path fill-rule="evenodd" clip-rule="evenodd" d="M12 9C9.61305 9 7.32387 9.94821 5.63604 11.636C3.94821 13.3239 3 15.6131 3 18V54C3 56.3869 3.94821 58.6761 5.63604 60.364C7.32387 62.0518 9.61305 63 12 63H60C62.3869 63 64.6761 62.0518 66.364 60.364C68.0518 58.6761 69 56.3869 69 54V18C69 15.6131 68.0518 13.3239 66.364 11.636C64.6761 9.94821 62.3869 9 60 9H12ZM60 15H12C11.2044 15 10.4413 15.3161 9.87868 15.8787C9.31607 16.4413 9 17.2044 9 18V54C9 54.7957 9.31607 55.5587 9.87868 56.1213C10.4413 56.6839 11.2044 57 12 57H60C60.7957 57 61.5587 56.6839 62.1213 56.1213C62.6839 55.5587 63 54.7957 63 54V18C63 17.2044 62.6839 16.4413 62.1213 15.8787C61.5587 15.3161 60.7957 15 60 15Z" fill="#0C69FF"/>
</svg>
