<svg width="216" height="26" viewBox="0 0 216 26" fill="none" xmlns="http://www.w3.org/2000/svg">
<path d="M0.12 17.096H8.504C8.58933 17.5653 8.83467 17.9707 9.24 18.312C9.64533 18.632 10.2 18.888 10.904 19.08C11.608 19.2507 12.4507 19.336 13.432 19.336C14.712 19.336 15.704 19.208 16.408 18.952C17.1333 18.696 17.496 18.28 17.496 17.704C17.496 17.32 17.2933 17 16.888 16.744C16.4827 16.4667 15.6507 16.2853 14.392 16.2L10.424 15.944C6.81867 15.7093 4.216 14.9413 2.616 13.64C1.016 12.3387 0.216 10.6213 0.216 8.488C0.216 6.696 0.728 5.20267 1.752 4.008C2.776 2.81333 4.20533 1.91733 6.04 1.32C7.896 0.722666 10.0613 0.424 12.536 0.424C14.9467 0.424 17.08 0.765333 18.936 1.448C20.8133 2.10933 22.296 3.048 23.384 4.264C24.4933 5.48 25.1013 6.89867 25.208 8.52H16.824C16.76 8.136 16.5467 7.80533 16.184 7.528C15.8427 7.25067 15.352 7.03733 14.712 6.888C14.072 6.73867 13.2933 6.664 12.376 6.664C11.2027 6.664 10.2747 6.78133 9.592 7.016C8.93067 7.25067 8.6 7.63467 8.6 8.168C8.6 8.53067 8.792 8.84 9.176 9.096C9.58133 9.352 10.3493 9.52267 11.48 9.608L15.96 9.896C18.3067 10.0453 20.2053 10.3973 21.656 10.952C23.1067 11.4853 24.1627 12.232 24.824 13.192C25.5067 14.152 25.848 15.336 25.848 16.744C25.848 18.5147 25.3253 20.0613 24.28 21.384C23.2347 22.7067 21.7627 23.7413 19.864 24.488C17.9867 25.2133 15.7893 25.576 13.272 25.576C10.6693 25.576 8.38667 25.224 6.424 24.52C4.46133 23.816 2.92533 22.824 1.816 21.544C0.728 20.264 0.162667 18.7813 0.12 17.096ZM42.7478 0.999998C44.9238 0.999998 46.7798 1.36267 48.3158 2.088C49.8731 2.792 51.0571 3.80533 51.8678 5.128C52.6784 6.42933 53.0838 7.96533 53.0838 9.736C53.0838 11.5067 52.6784 13.0533 51.8678 14.376C51.0571 15.6773 49.8731 16.6907 48.3158 17.416C46.7798 18.12 44.9238 18.472 42.7478 18.472H32.6038V12.04H42.2038C43.0144 12.04 43.6438 11.8373 44.0918 11.432C44.5398 11.0267 44.7638 10.4613 44.7638 9.736C44.7638 8.98933 44.5398 8.424 44.0918 8.04C43.6438 7.63467 43.0144 7.432 42.2038 7.432H33.3078L37.0198 3.72V25H28.7638V0.999998H42.7478ZM61.4013 17.096H69.7853C69.8706 17.5653 70.1159 17.9707 70.5213 18.312C70.9266 18.632 71.4813 18.888 72.1853 19.08C72.8893 19.2507 73.7319 19.336 74.7133 19.336C75.9933 19.336 76.9853 19.208 77.6893 18.952C78.4146 18.696 78.7773 18.28 78.7773 17.704C78.7773 17.32 78.5746 17 78.1693 16.744C77.7639 16.4667 76.9319 16.2853 75.6733 16.2L71.7053 15.944C68.0999 15.7093 65.4973 14.9413 63.8973 13.64C62.2973 12.3387 61.4973 10.6213 61.4973 8.488C61.4973 6.696 62.0093 5.20267 63.0333 4.008C64.0573 2.81333 65.4866 1.91733 67.3213 1.32C69.1773 0.722666 71.3426 0.424 73.8173 0.424C76.2279 0.424 78.3613 0.765333 80.2173 1.448C82.0946 2.10933 83.5773 3.048 84.6653 4.264C85.7746 5.48 86.3826 6.89867 86.4893 8.52H78.1053C78.0413 8.136 77.8279 7.80533 77.4653 7.528C77.1239 7.25067 76.6333 7.03733 75.9933 6.888C75.3533 6.73867 74.5746 6.664 73.6573 6.664C72.4839 6.664 71.5559 6.78133 70.8733 7.016C70.2119 7.25067 69.8813 7.63467 69.8813 8.168C69.8813 8.53067 70.0733 8.84 70.4573 9.096C70.8626 9.352 71.6306 9.52267 72.7613 9.608L77.2413 9.896C79.5879 10.0453 81.4866 10.3973 82.9373 10.952C84.3879 11.4853 85.4439 12.232 86.1053 13.192C86.7879 14.152 87.1293 15.336 87.1293 16.744C87.1293 18.5147 86.6066 20.0613 85.5613 21.384C84.5159 22.7067 83.0439 23.7413 81.1453 24.488C79.2679 25.2133 77.0706 25.576 74.5533 25.576C71.9506 25.576 69.6679 25.224 67.7053 24.52C65.7426 23.816 64.2066 22.824 63.0973 21.544C62.0093 20.264 61.4439 18.7813 61.4013 17.096ZM96.6558 4.552H104.912V25H96.6558V4.552ZM88.0158 0.999998H113.552V8.36H88.0158V0.999998ZM124.075 13.992C124.075 14.8667 124.224 15.624 124.523 16.264C124.843 16.8827 125.323 17.3627 125.963 17.704C126.603 18.0453 127.424 18.216 128.427 18.216C129.451 18.216 130.283 18.056 130.923 17.736C131.563 17.3947 132.032 16.904 132.331 16.264C132.629 15.624 132.779 14.8667 132.779 13.992V0.999998H141.035V14.44C141.035 16.68 140.512 18.632 139.467 20.296C138.421 21.96 136.949 23.2613 135.051 24.2C133.173 25.1173 130.965 25.576 128.427 25.576C125.909 25.576 123.701 25.1173 121.803 24.2C119.925 23.2613 118.453 21.96 117.387 20.296C116.341 18.632 115.819 16.68 115.819 14.44V0.999998H124.075V13.992ZM157.312 0.999998C160.235 0.999998 162.784 1.50133 164.96 2.504C167.158 3.48533 168.864 4.872 170.08 6.664C171.296 8.456 171.904 10.568 171.904 13C171.904 15.4107 171.296 17.5227 170.08 19.336C168.864 21.128 167.158 22.5253 164.96 23.528C162.784 24.5093 160.235 25 157.312 25H144.576V0.999998H157.312ZM152.768 21.32L149.056 17.64H157.952C159.126 17.64 160.128 17.4587 160.96 17.096C161.814 16.712 162.464 16.1787 162.912 15.496C163.36 14.792 163.584 13.96 163.584 13C163.584 12.0187 163.36 11.1867 162.912 10.504C162.464 9.82133 161.814 9.29867 160.96 8.936C160.128 8.552 159.126 8.36 157.952 8.36H149.056L152.768 4.68V21.32ZM174.858 0.999998H183.114V25H174.858V0.999998ZM200.647 25.576C197.725 25.576 195.165 25.0533 192.967 24.008C190.791 22.9627 189.095 21.5013 187.879 19.624C186.663 17.7253 186.055 15.5173 186.055 13C186.055 10.4827 186.663 8.28533 187.879 6.408C189.095 4.50933 190.791 3.03733 192.967 1.992C195.165 0.946666 197.725 0.424 200.647 0.424C203.57 0.424 206.119 0.946666 208.295 1.992C210.493 3.03733 212.199 4.50933 213.415 6.408C214.631 8.28533 215.239 10.4827 215.239 13C215.239 15.5173 214.631 17.7253 213.415 19.624C212.199 21.5013 210.493 22.9627 208.295 24.008C206.119 25.0533 203.57 25.576 200.647 25.576ZM200.647 18.216C201.949 18.216 203.069 18.0133 204.007 17.608C204.946 17.1813 205.661 16.584 206.151 15.816C206.663 15.0267 206.919 14.088 206.919 13C206.919 11.912 206.663 10.984 206.151 10.216C205.661 9.42667 204.946 8.82933 204.007 8.424C203.069 7.99733 201.949 7.784 200.647 7.784C199.346 7.784 198.226 7.99733 197.287 8.424C196.349 8.82933 195.623 9.42667 195.111 10.216C194.621 10.984 194.375 11.912 194.375 13C194.375 14.088 194.621 15.0267 195.111 15.816C195.623 16.584 196.349 17.1813 197.287 17.608C198.226 18.0133 199.346 18.216 200.647 18.216Z" fill="#0C69FF"/>
</svg>
