<svg width="19" height="23" viewBox="0 0 19 23" fill="none" xmlns="http://www.w3.org/2000/svg">
<path d="M2.99605 23V0.865999H10.0641C12.9161 0.865999 14.9931 1.44467 16.2951 2.602C17.6177 3.75933 18.2791 5.35067 18.2791 7.376C18.2791 8.57467 18.0104 9.701 17.4731 10.755C16.9357 11.809 16.0367 12.6563 14.7761 13.297C13.5361 13.9377 11.8414 14.258 9.69206 14.258H7.67706V23H2.99605ZM0.516055 19.683V16.676H12.4511V19.683H0.516055ZM0.516055 14.258V10.414H9.59905V14.258H0.516055ZM9.22705 10.414C10.1157 10.414 10.8804 10.321 11.5211 10.135C12.1617 9.92833 12.6577 9.608 13.0091 9.174C13.3604 8.74 13.5361 8.19233 13.5361 7.531C13.5361 6.58033 13.2364 5.87767 12.6371 5.423C12.0377 4.94767 11.0974 4.71 9.81605 4.71H7.67706V10.414H9.22705Z" fill="#0E0F0F"/>
</svg>
