<svg width="75" height="75" viewBox="0 0 75 75" fill="none" xmlns="http://www.w3.org/2000/svg">
<path d="M12.892 1.70654L9.12054 5.47261L14.7321 11.0815L18.4982 7.31547L12.8893 1.70654H12.892ZM62.1107 1.70654L56.4991 7.31547L60.2679 11.0815L65.8768 5.47529L62.1107 1.70654ZM37.5 3.37797C36.6161 3.38869 35.7214 3.43958 34.8214 3.5494C34.7946 3.5494 34.7679 3.54404 34.7411 3.5494C23.8768 4.79494 15.2304 13.5726 13.7277 24.3887C12.5277 33.094 16.117 40.9878 22.0982 46.0717C24.5448 48.1598 26.1997 51.0251 26.7857 54.1878V70.2592H32.8929C33.825 71.8583 35.5259 72.9378 37.5 72.9378C39.4741 72.9378 41.175 71.8583 42.1071 70.2592H48.2143V59.5449H48.4661V56.3628C48.4661 52.436 50.5071 48.4771 53.8232 45.3994C58.2589 40.9583 61.6071 34.6503 61.6071 27.4048C61.6071 14.1726 50.7161 3.25476 37.5 3.37797ZM37.5 8.73511C47.8527 8.59047 56.25 17.0655 56.25 27.4048C56.25 33.0137 53.6518 37.953 50.0545 41.5476L50.1402 41.6333C46.5653 44.9299 44.2537 49.3712 43.6045 54.1905H31.8884C31.2991 49.5994 29.3304 45.1556 25.6098 41.9681C20.8768 37.9503 18.0563 31.8967 18.9991 25.061C20.1696 16.6235 27.0161 9.83869 35.4054 8.90922C36.098 8.81265 36.7955 8.75542 37.4946 8.73779L37.5 8.73511ZM0 27.4048V32.7619H8.03571V27.4048H0ZM66.9643 27.4048V32.7619H75V27.4048H66.9643ZM14.7321 49.0851L9.12321 54.6914L12.892 58.4601L18.4955 52.8512L14.7321 49.0851ZM60.2679 49.0851L56.5018 52.8512L62.108 58.4601L65.8768 54.6914L60.2679 49.0851ZM32.1429 59.5476H42.8571V64.9048H32.1429V59.5476Z" fill="#FF650C"/>
</svg>
