<svg width="20" height="20" viewBox="0 0 20 20" fill="none" xmlns="http://www.w3.org/2000/svg">
<path d="M3.34529 8.0458L9.12108 13.6641C9.24664 13.7863 9.38266 13.8726 9.52915 13.9231C9.67564 13.9744 9.83259 14 10 14C10.1674 14 10.3244 13.9744 10.4709 13.9231C10.6173 13.8726 10.7534 13.7863 10.8789 13.6641L16.6547 8.0458C16.8849 7.82188 17 7.5369 17 7.19084C17 6.84478 16.8849 6.5598 16.6547 6.33588C16.4245 6.11196 16.1315 6 15.7758 6C15.42 6 15.1271 6.11196 14.8969 6.33588L10 11.0992L5.10314 6.33588C4.87295 6.11196 4.57997 6 4.22422 6C3.86846 6 3.57549 6.11196 3.34529 6.33588C3.1151 6.5598 3 6.84478 3 7.19084C3 7.5369 3.1151 7.82188 3.34529 8.0458Z" fill="url(#paint0_linear_344_1755)"/>
<defs>
<linearGradient id="paint0_linear_344_1755" x1="19.8" y1="4.25" x2="19.648" y2="15.1481" gradientUnits="userSpaceOnUse">
<stop stop-color="#C2AC7D"/>
<stop offset="0.0001" stop-color="#C2A97D"/>
<stop offset="1" stop-color="#A67C46"/>
</linearGradient>
</defs>
</svg>
