<svg width="20" height="20" viewBox="0 0 20 20" fill="none" xmlns="http://www.w3.org/2000/svg">
<path d="M11.9542 3.34529L6.33588 9.12108C6.21374 9.24664 6.12743 9.38266 6.07695 9.52915C6.02565 9.67564 6 9.83259 6 10C6 10.1674 6.02565 10.3244 6.07695 10.4709C6.12743 10.6173 6.21374 10.7534 6.33588 10.8789L11.9542 16.6547C12.1781 16.8849 12.4631 17 12.8092 17C13.1552 17 13.4402 16.8849 13.6641 16.6547C13.888 16.4245 14 16.1315 14 15.7758C14 15.42 13.888 15.1271 13.6641 14.8969L8.90076 10L13.6641 5.10314C13.888 4.87295 14 4.57997 14 4.22422C14 3.86846 13.888 3.57549 13.6641 3.34529C13.4402 3.1151 13.1552 3 12.8092 3C12.4631 3 12.1781 3.1151 11.9542 3.34529Z" fill="url(#paint0_linear_344_2439)"/>
<defs>
<linearGradient id="paint0_linear_344_2439" x1="15.75" y1="19.8" x2="4.85188" y2="19.648" gradientUnits="userSpaceOnUse">
<stop stop-color="#C2AC7D"/>
<stop offset="0.0001" stop-color="#C2A97D"/>
<stop offset="1" stop-color="#A67C46"/>
</linearGradient>
</defs>
</svg>
