<svg width="20" height="20" viewBox="0 0 20 20" fill="none" xmlns="http://www.w3.org/2000/svg">
<path d="M8.0458 16.6547L13.6641 10.8789C13.7863 10.7534 13.8726 10.6173 13.9231 10.4709C13.9744 10.3244 14 10.1674 14 10C14 9.83259 13.9744 9.67563 13.9231 9.52915C13.8726 9.38266 13.7863 9.24664 13.6641 9.12108L8.0458 3.34529C7.82188 3.1151 7.5369 3 7.19084 3C6.84478 3 6.5598 3.1151 6.33588 3.34529C6.11196 3.57549 6 3.86846 6 4.22421C6 4.57997 6.11196 4.87294 6.33588 5.10314L11.0992 10L6.33588 14.8969C6.11196 15.1271 6 15.42 6 15.7758C6 16.1315 6.11196 16.4245 6.33588 16.6547C6.5598 16.8849 6.84478 17 7.19084 17C7.5369 17 7.82188 16.8849 8.0458 16.6547Z" fill="url(#paint0_linear_344_2441)"/>
<defs>
<linearGradient id="paint0_linear_344_2441" x1="4.25" y1="0.200027" x2="15.1481" y2="0.352008" gradientUnits="userSpaceOnUse">
<stop stop-color="#C2AC7D"/>
<stop offset="0.0001" stop-color="#C2A97D"/>
<stop offset="1" stop-color="#A67C46"/>
</linearGradient>
</defs>
</svg>
