<svg width="25" height="20" viewBox="0 0 25 20" fill="none" xmlns="http://www.w3.org/2000/svg">
<path fill-rule="evenodd" clip-rule="evenodd" d="M14.069 0.529998L14.169 0.416998C14.3781 0.211307 14.6545 0.0879579 14.9473 0.069589C15.2401 0.0512202 15.5297 0.139064 15.763 0.316998L15.877 0.416998L24.329 8.766L24.379 8.818L24.446 8.899L24.532 9.032L24.597 9.166L24.64 9.292L24.675 9.468L24.683 9.609L24.68 9.699L24.659 9.849L24.623 9.981L24.57 10.114L24.507 10.23L24.417 10.355L24.329 10.453L15.877 18.801C15.6492 19.025 15.3425 19.1505 15.023 19.1505C14.7035 19.1505 14.3968 19.025 14.169 18.801C13.9614 18.597 13.8365 18.3235 13.8181 18.0331C13.7996 17.7427 13.8889 17.4557 14.069 17.227L14.169 17.115L20.559 10.802H1.73996C1.58237 10.8029 1.42615 10.7728 1.2802 10.7133C1.13426 10.6539 1.00146 10.5663 0.889375 10.4555C0.777294 10.3447 0.688131 10.2129 0.626977 10.0677C0.565823 9.92245 0.533876 9.76659 0.532959 9.609C0.533876 9.45141 0.565823 9.29555 0.626977 9.15031C0.688131 9.00507 0.777294 8.87329 0.889375 8.76251C1.00146 8.65173 1.13426 8.56411 1.2802 8.50466C1.42615 8.4452 1.58237 8.41508 1.73996 8.416H20.56L14.17 2.104C13.9622 1.89991 13.8371 1.62629 13.8186 1.33563C13.8001 1.04497 13.8897 0.757726 14.07 0.528998L14.069 0.529998Z" fill="#EAEAEA"/>
</svg>
