<svg width="103" height="30" viewBox="0 0 103 30" fill="none" xmlns="http://www.w3.org/2000/svg">
<path d="M102.539 29.6411H100.568V19.4146L91.7006 29.6411H90.7046V14.4107H93.0756V24.7939L102.003 14.4107H103V29.6411H102.539Z" fill="white"/>
<path d="M78.1144 14.4107H80.0245V20.4128H86.4701V14.4107H88.8413V29.6411H86.4701V22.7217H80.0245V29.6411H77.6533V14.4107H78.1144Z" fill="white"/>
<path d="M65.6458 14.4107H67.5941L70.7941 19.5593L74.0064 14.4107H76.7774L72.1753 21.7824L77.059 29.6411H74.2861L70.7871 24.0102L67.2695 29.6411H64.499L69.4032 21.7842L64.8208 14.4107H65.6458Z" fill="white"/>
<path d="M40.9781 14.4107H42.9087V19.1887L48.0631 14.4107H51.3576L53.7594 14.4089L57.8471 23.4701L61.5607 14.4107H64.1472L58.3862 27.9065C58.0967 28.594 57.6859 29.1151 57.1554 29.4685C56.6235 29.8226 55.9854 30 55.241 30C54.9481 30 54.6611 29.9697 54.381 29.91C54.1011 29.8497 53.8305 29.7604 53.5692 29.6433L53.5674 29.6415C53.2939 29.5171 52.9942 29.3162 52.6686 29.0405C52.3579 28.7773 52.0176 28.4425 51.648 28.0371L51.3261 27.6836L53.0718 26.263L53.3658 26.5503C53.7234 26.8995 54.0164 27.1693 54.2437 27.3589C54.4496 27.5282 54.5898 27.629 54.6639 27.6583C54.7608 27.697 54.8568 27.7259 54.9507 27.7445C55.0379 27.7619 55.1315 27.7708 55.2308 27.7708C55.3772 27.7708 55.5094 27.7528 55.6269 27.7174C55.7415 27.6826 55.8485 27.6296 55.9474 27.559C56.0362 27.4941 56.1416 27.3619 56.2619 27.1645C56.3806 26.9699 56.504 26.7261 56.6315 26.4338L51.1952 14.5604L43.8743 21.3094L51.7966 29.6411H48.6044L42.9087 23.6473V29.6411H40.5171V14.4107H40.9781Z" fill="white"/>
<path d="M39.5872 17.8715L38.0823 19.0157L37.8018 18.653C37.5087 18.2745 37.1878 17.9429 36.8389 17.6589C36.4898 17.3747 36.1113 17.1357 35.7046 16.9425C35.3007 16.7502 34.8724 16.6045 34.4211 16.507C33.9709 16.4097 33.497 16.3607 33.0006 16.3607C32.4614 16.3607 31.9458 16.4242 31.4545 16.5507C30.9616 16.6775 30.4848 16.8697 30.025 17.126C29.5677 17.3813 29.1642 17.6787 28.8155 18.0172C28.4658 18.3562 28.1664 18.7398 27.9165 19.1667C27.6665 19.5943 27.4786 20.0485 27.3546 20.5255C27.2302 21.0042 27.1675 21.516 27.1675 22.0592C27.1675 22.8757 27.3066 23.6204 27.5846 24.2912C27.8626 24.9621 28.2807 25.5675 28.8386 26.1065C29.3981 26.6482 30.0297 27.0547 30.7326 27.3243C31.439 27.5954 32.2254 27.731 33.0912 27.731C34.9739 27.731 36.5488 26.9999 37.818 25.5386L38.1003 25.2135L39.9588 26.6104L39.6701 26.9736C39.2887 27.4534 38.8565 27.8823 38.3748 28.2586C37.8989 28.632 37.3747 28.95 36.8032 29.2128C36.2339 29.4744 35.6294 29.6719 34.9917 29.8032C34.3562 29.934 33.6921 30 33.0006 30C30.3316 30 28.2193 29.1127 26.6676 27.3387C26.0166 26.5912 25.5278 25.7658 25.2026 24.8645C24.8784 23.9651 24.7158 22.9906 24.7158 21.9427C24.7158 20.8363 24.9135 19.8126 25.308 18.8743C25.7026 17.9365 26.2936 17.0874 27.0807 16.3292C27.8683 15.5701 28.7563 15.0004 29.7446 14.6203C30.7298 14.2414 31.8087 14.0518 32.9806 14.0518C34.3995 14.0518 35.685 14.33 36.8358 14.8857C37.4162 15.1696 37.9428 15.5064 38.4143 15.8968C38.889 16.2895 39.3116 16.7384 39.6809 17.2419L39.9438 17.6002L39.5872 17.8715Z" fill="white"/>
<path d="M14.984 14.4107H23.718V16.7195H16.8941V20.2932H23.6578V22.6021H16.8941V27.3322H23.6578V29.6411H14.5229V14.4107H14.984Z" fill="white"/>
<path d="M14.28 13.473L10.4916 5.18403L5.6906 16.1642L8.10018 16.1353L2.84059 29.5423H0L4.63062 18.3531L2.02452 18.3653L10.5051 0L16.8181 13.473H14.28Z" fill="white"/>
</svg>
