<svg width="44" height="44" viewBox="0 0 44 44" fill="none" xmlns="http://www.w3.org/2000/svg">
<path d="M9.25003 15.8239L18.6671 21.321L18.6688 21.322L20.9523 22.6549C21.2675 22.8389 21.627 22.9362 21.9923 22.9362H22.0077C22.373 22.9362 22.7325 22.8389 23.0474 22.6549L34.75 15.8239C36.2149 14.9692 37.125 13.3841 37.125 11.6875V10.3125H6.875V11.6875C6.875 13.3841 7.78506 14.9692 9.25003 15.8239Z" fill="#EAEAEA"/>
<path d="M35.4428 17.0116L26.9496 21.9694L38.5 30.2928V11.6875C38.5 13.8712 37.3284 15.9112 35.4428 17.0116Z" fill="#EAEAEA"/>
<path d="M23.7406 23.8426C23.2155 24.1491 22.616 24.3112 22.0077 24.3112C21.3961 24.328 20.7851 24.1498 20.2591 23.8426L18.3496 22.7279L5.5 31.9879V33C5.5 33.3797 5.80783 33.6875 6.1875 33.6875H37.8125C38.1922 33.6875 38.5 33.3797 38.5 33V31.9877L25.6502 22.7279L23.7406 23.8426Z" fill="#EAEAEA"/>
<path d="M8.55716 17.0116C6.67157 15.9112 5.5 13.8712 5.5 11.6875V30.2929L17.0502 21.9694L8.55716 17.0116Z" fill="#EAEAEA"/>
</svg>
