<svg width="30" height="30" viewBox="0 0 30 30" fill="none" xmlns="http://www.w3.org/2000/svg">
<g clip-path="url(#clip0_468_1556)">
<circle cx="15" cy="15" r="15" transform="matrix(-1 0 0 1 30 0)" fill="url(#paint0_linear_468_1556)"/>
<path d="M16.6248 21.6249L10.8748 15.8749C10.7498 15.7499 10.6614 15.6145 10.6098 15.4686C10.5573 15.3228 10.531 15.1665 10.531 14.9999C10.531 14.8332 10.5573 14.677 10.6098 14.5311C10.6614 14.3853 10.7498 14.2499 10.8748 14.1249L16.6248 8.37488C16.8539 8.14571 17.1456 8.03113 17.4998 8.03113C17.8539 8.03113 18.1456 8.14571 18.3748 8.37488C18.6039 8.60404 18.7185 8.89571 18.7185 9.24988C18.7185 9.60404 18.6039 9.89571 18.3748 10.1249L13.4998 14.9999L18.3748 19.8749C18.6039 20.104 18.7185 20.3957 18.7185 20.7499C18.7185 21.104 18.6039 21.3957 18.3748 21.6249C18.1456 21.854 17.8539 21.9686 17.4998 21.9686C17.1456 21.9686 16.8539 21.854 16.6248 21.6249Z" fill="#0D0D0D"/>
</g>
<defs>
<linearGradient id="paint0_linear_468_1556" x1="36.5625" y1="-5.99994" x2="-4.28906" y2="-5.00297" gradientUnits="userSpaceOnUse">
<stop stop-color="#C2AC7D"/>
<stop offset="0.0001" stop-color="#C2A97D"/>
<stop offset="1" stop-color="#A67C46"/>
</linearGradient>
<clipPath id="clip0_468_1556">
<rect width="30" height="30" fill="white"/>
</clipPath>
</defs>
</svg>
