<svg width="30" height="30" viewBox="0 0 30 30" fill="none" xmlns="http://www.w3.org/2000/svg">
<g clip-path="url(#clip0_468_1553)">
<circle cx="15" cy="15" r="15" fill="url(#paint0_linear_468_1553)"/>
<path d="M13.3752 21.6249L19.1252 15.8749C19.2502 15.7499 19.3386 15.6145 19.3902 15.4686C19.4427 15.3228 19.469 15.1665 19.469 14.9999C19.469 14.8332 19.4427 14.677 19.3902 14.5311C19.3386 14.3853 19.2502 14.2499 19.1252 14.1249L13.3752 8.37488C13.1461 8.14571 12.8544 8.03113 12.5002 8.03113C12.1461 8.03113 11.8544 8.14571 11.6252 8.37488C11.3961 8.60404 11.2815 8.89571 11.2815 9.24988C11.2815 9.60404 11.3961 9.89571 11.6252 10.1249L16.5002 14.9999L11.6252 19.8749C11.3961 20.104 11.2815 20.3957 11.2815 20.7499C11.2815 21.104 11.3961 21.3957 11.6252 21.6249C11.8544 21.854 12.1461 21.9686 12.5002 21.9686C12.8544 21.9686 13.1461 21.854 13.3752 21.6249Z" fill="#0D0D0D"/>
</g>
<defs>
<linearGradient id="paint0_linear_468_1553" x1="36.5625" y1="-5.99994" x2="-4.28906" y2="-5.00297" gradientUnits="userSpaceOnUse">
<stop stop-color="#C2AC7D"/>
<stop offset="0.0001" stop-color="#C2A97D"/>
<stop offset="1" stop-color="#A67C46"/>
</linearGradient>
<clipPath id="clip0_468_1553">
<rect width="30" height="30" fill="white" transform="matrix(-1 0 0 1 30 0)"/>
</clipPath>
</defs>
</svg>
