<svg width="104" height="104" viewBox="0 0 104 104" fill="none" xmlns="http://www.w3.org/2000/svg">
<path opacity="0.03" d="M0 24.5556C0 19.7407 1.05486 15.5037 3.16459 11.8444C5.37022 8.08889 8.34301 5.2 12.083 3.17778C15.9189 1.05926 20.2342 0 25.029 0C29.728 0 33.9474 1.05926 37.6874 3.17778C41.5233 5.2 44.544 8.08889 46.7497 11.8444C48.9553 15.6 50.0581 19.837 50.0581 24.5556C50.0581 29.2741 48.9553 33.5111 46.7497 37.2667C44.6399 41.0222 41.6671 43.9593 37.8313 46.0778C33.9954 48.1 29.728 49.1111 25.029 49.1111C20.3301 49.1111 16.0627 48.1 12.2268 46.0778C8.48686 43.9593 5.51406 41.0222 3.30844 37.2667C1.10281 33.5111 0 29.2741 0 24.5556ZM80.5533 1.58889H96.3762L23.8783 102.7H7.62379L80.5533 1.58889ZM35.6736 24.5556C35.6736 21.2815 34.7146 18.6815 32.7967 16.7556C30.8787 14.8296 28.2895 13.8667 25.029 13.8667C21.8645 13.8667 19.2752 14.8778 17.2614 16.9C15.3435 18.8259 14.3845 21.3778 14.3845 24.5556C14.3845 27.7333 15.3435 30.3333 17.2614 32.3556C19.2752 34.2815 21.8645 35.2444 25.029 35.2444C28.2895 35.2444 30.8787 34.2815 32.7967 32.3556C34.7146 30.3333 35.6736 27.7333 35.6736 24.5556ZM53.9419 79.4444C53.9419 74.7259 54.9968 70.4889 57.1065 66.7333C59.3121 62.9778 62.2849 60.0889 66.0249 58.0667C69.8608 55.9481 74.1761 54.8889 78.971 54.8889C83.574 54.8889 87.7935 55.9481 91.6293 58.0667C95.4652 60.0889 98.4859 62.9778 100.692 66.7333C102.897 70.4889 104 74.7259 104 79.4444C104 84.1629 102.897 88.4 100.692 92.1556C98.4859 95.9111 95.4652 98.8481 91.6293 100.967C87.8894 102.989 83.6699 104 78.971 104C74.272 104 70.0046 102.989 66.1687 100.967C62.3329 98.8481 59.3121 95.9593 57.1065 92.3C54.9968 88.5444 53.9419 84.2592 53.9419 79.4444ZM89.6155 79.4444C89.6155 76.1704 88.6565 73.5704 86.7386 71.6444C84.8207 69.7185 82.2314 68.7556 78.971 68.7556C75.7105 68.7556 73.1213 69.7667 71.2033 71.7889C69.2854 73.7148 68.3264 76.2667 68.3264 79.4444C68.3264 82.6222 69.2854 85.2222 71.2033 87.2444C73.1213 89.1704 75.7105 90.1333 78.971 90.1333C82.1356 90.1333 84.6768 89.1704 86.5947 87.2444C88.6086 85.2222 89.6155 82.6222 89.6155 79.4444Z" fill="#EAEAEA"/>
</svg>
