<svg width="44" height="44" viewBox="0 0 44 44" fill="none" xmlns="http://www.w3.org/2000/svg">
<path d="M35.2402 29.9527L30.7862 26.8405C30.2038 26.4349 29.523 26.2204 28.817 26.2204C27.6941 26.2204 26.6404 26.771 25.9985 27.6921L24.9646 29.1739C23.2318 28.0117 21.2978 26.3889 19.4552 24.5463C17.6123 22.7034 15.9895 20.7698 14.828 19.0369L16.3088 18.0033C17.8634 16.9207 18.2457 14.7729 17.1604 13.2147L14.0489 8.76135C13.398 7.83047 12.3479 7.2749 11.2401 7.2749C10.8564 7.2749 10.4798 7.34238 10.1209 7.47498C9.71406 7.6257 9.33507 7.81 8.96312 8.0433L8.34813 8.47635C8.19438 8.59619 8.05137 8.72678 7.91441 8.86374C7.16414 9.61401 6.63139 10.5634 6.33128 11.6859C5.04927 16.492 8.22526 23.7585 14.2342 29.7674C19.2803 34.8135 25.3426 37.9485 30.0551 37.9489H30.0561C30.8624 37.9489 31.6224 37.8549 32.316 37.6703C33.4385 37.3701 34.3879 36.8374 35.1371 36.0878C35.2744 35.9512 35.4053 35.8078 35.545 35.6269L35.9787 35.0079C36.1912 34.6675 36.3755 34.2881 36.5266 33.8806C37.0509 32.464 36.5222 30.8486 35.2402 29.9527Z" fill="#EAEAEA"/>
<path d="M32.9487 11.0531C29.9856 8.08963 26.0519 6.31381 21.8725 6.05264C21.4959 6.02746 21.1672 6.31717 21.1434 6.69583C21.1196 7.07483 21.4076 7.40112 21.7866 7.42496C25.6313 7.66531 29.2501 9.29913 31.9766 12.0253C34.7024 14.7511 36.3359 18.3696 36.5766 22.2143C36.5994 22.5785 36.9019 22.8588 37.2621 22.8588C37.2765 22.8588 37.2909 22.8585 37.3057 22.8574C37.6847 22.8336 37.9727 22.5073 37.9489 22.1283C37.6874 17.9493 35.9116 14.016 32.9487 11.0531Z" fill="#EAEAEA"/>
<path d="M21.5288 11.5419C24.3704 11.7198 27.0449 12.9273 29.0597 14.9421C31.0742 16.957 32.2817 19.6311 32.4596 22.4721C32.4825 22.8363 32.7849 23.1166 33.1451 23.1166C33.1596 23.1166 33.174 23.1163 33.1888 23.1153C33.5678 23.0914 33.8558 22.7651 33.8319 22.3861C33.6332 19.2105 32.2837 16.2215 30.0319 13.97C27.7801 11.7181 24.7907 10.3683 21.6147 10.1696C21.2344 10.1484 20.9094 10.4341 20.8856 10.8128C20.8618 11.1918 21.1498 11.5181 21.5288 11.5419Z" fill="#EAEAEA"/>
<path d="M21.271 15.6588C23.1089 15.774 24.8391 16.5551 26.1429 17.8586C27.4464 19.1625 28.2275 20.8923 28.343 22.7299C28.3658 23.0944 28.6686 23.3744 29.0285 23.3744C29.0429 23.3744 29.0577 23.3741 29.0721 23.3731C29.4511 23.3492 29.7392 23.0226 29.7153 22.6439C29.579 20.4717 28.6556 18.4273 27.1151 16.8865C25.5742 15.346 23.5292 14.4225 21.3569 14.2865C20.9729 14.2607 20.6516 14.5511 20.6278 14.9297C20.6039 15.3087 20.892 15.635 21.271 15.6588Z" fill="#EAEAEA"/>
</svg>
