<svg width="20" height="16" viewBox="0 0 20 16" fill="none" xmlns="http://www.w3.org/2000/svg">
<path opacity="0.5" d="M18.0924 0.348634L18.0994 0.345939L18.1063 0.342852C18.4007 0.210508 18.6405 0.262649 18.7797 0.396378C18.9219 0.532942 19.0354 0.828045 18.9082 1.33481L18.908 1.33477L18.906 1.34403L16.1525 14.2385L16.1523 14.2394C16.0636 14.6619 15.9075 14.844 15.7613 14.9094C15.6152 14.9748 15.3822 14.9671 15.0344 14.7801L10.8544 11.7123L10.6734 11.5794L10.5119 11.7354L8.49601 13.6832L8.49529 13.6839L8.48282 13.6959C8.36506 13.8088 8.28622 13.8845 8.19354 13.9395C8.17315 13.9516 8.1517 13.9628 8.1286 13.9729L8.38507 10.165L16.0855 3.25957C16.0858 3.25932 16.0861 3.25906 16.0863 3.25881C16.1863 3.17047 16.2944 3.0414 16.3007 2.87726C16.3042 2.78534 16.274 2.69791 16.2153 2.62843C16.1603 2.56325 16.0908 2.52604 16.0295 2.50514C15.91 2.46435 15.7741 2.46855 15.6497 2.49418C15.5201 2.52086 15.3808 2.57508 15.2435 2.65808L15.2435 2.65805L15.2399 2.66034L5.73745 8.61762L1.7024 7.36689L1.70122 7.36653C1.49994 7.30516 1.37374 7.23172 1.30486 7.167C1.24055 7.10657 1.23834 7.06788 1.24031 7.04839C1.24332 7.01871 1.26653 6.94928 1.37874 6.85069C1.4889 6.7539 1.66534 6.64716 1.92305 6.54415C1.92361 6.54393 1.92418 6.5437 1.92474 6.54348L18.0924 0.348634Z" stroke="#EAEAEA" stroke-width="0.532458"/>
</svg>
