<?xml version="1.0" encoding="UTF-8" standalone="no"?>
<!DOCTYPE svg PUBLIC "-//W3C//DTD SVG 1.1//EN" "http://www.w3.org/Graphics/SVG/1.1/DTD/svg11.dtd">
<svg width="100%" height="100%" viewBox="0 0 1707 538" version="1.1" xmlns="http://www.w3.org/2000/svg" xmlns:xlink="http://www.w3.org/1999/xlink" xml:space="preserve" xmlns:serif="http://www.serif.com/" style="fill-rule:evenodd;clip-rule:evenodd;stroke-linejoin:round;stroke-miterlimit:2;">
    <g transform="matrix(1.03204,0,0,0.678436,-427.266,-489.831)">
        <rect id="Artboard1" x="414" y="722" width="1654" height="793" style="fill:none;"/>
        <g id="Artboard11" serif:id="Artboard1">
            <g transform="matrix(0.73667,0,0,1.12063,114.287,-361.426)">
                <path d="M850.461,1426.57L851.617,1428.88C853.559,1432.76 854.587,1437.04 854.623,1441.38C855.212,1512.02 836.995,1564.83 802.852,1600.74C768.276,1637.11 717.784,1656.61 650.419,1656.61C583.738,1656.61 530.742,1635.5 490.91,1594.64C451.581,1554.29 430.801,1497.5 430.801,1423.51L430.801,1255.88C430.801,1182.37 450.852,1125.71 488.772,1085.17C527.538,1043.73 579.199,1022.39 644.254,1022.39C713.156,1022.39 764.719,1042.15 799.913,1078.98C834.587,1115.26 853.835,1168.51 855.006,1239.61C855.081,1244.19 854.051,1248.72 852.002,1252.82L850.846,1255.13C846.021,1264.78 836.157,1270.88 825.366,1270.88L719.782,1270.88C712.019,1270.88 704.593,1267.71 699.22,1262.11C693.848,1256.51 690.994,1248.95 691.319,1241.2C692.51,1212.83 690.5,1192.07 681.572,1179.57C674.601,1169.81 661.603,1167.22 644.254,1167.22C629.926,1167.22 618.777,1172.46 611.165,1183.65C600.503,1199.33 596.443,1223.33 596.443,1255.11L596.443,1423.51C596.443,1455.42 600.708,1479.46 612.002,1495C620.676,1506.94 633.709,1512.16 650.419,1512.16C665.196,1512.16 676.357,1510.23 682.167,1501.69C690.273,1489.78 691.927,1469.12 690.926,1440.29C690.658,1432.57 693.538,1425.07 698.906,1419.51C704.274,1413.96 711.67,1410.82 719.396,1410.82L824.981,1410.82C835.771,1410.82 845.635,1416.91 850.461,1426.57Z" style="fill:none;stroke:white;stroke-width:35.62px;"/>
                <path d="M1020.32,1183.34C1038.81,1172.38 1058.99,1166.89 1080.85,1166.89C1127.71,1166.89 1164.41,1185.66 1191.1,1222.92C1214.78,1255.99 1228.02,1306.7 1228.02,1375.72L1228.02,1620.03C1228.02,1635.77 1215.27,1648.52 1199.54,1648.52L1089.71,1648.52C1073.98,1648.52 1061.23,1635.77 1061.23,1620.03L1061.23,1374.95C1061.23,1347.74 1059.61,1328.6 1053.21,1318.04C1050.38,1313.37 1045.63,1311.73 1039.62,1311.73C1034.62,1311.73 1030.14,1312.61 1026.26,1314.79C1024.12,1316 1022.15,1317.45 1020.32,1319.13L1020.32,1620.03C1020.32,1635.77 1007.57,1648.52 991.836,1648.52L882.397,1648.52C866.664,1648.52 853.91,1635.77 853.91,1620.03L853.91,1018.89C853.91,1003.16 866.664,990.405 882.397,990.405L991.836,990.405C1007.57,990.405 1020.32,1003.16 1020.32,1018.89L1020.32,1183.34Z" style="fill:none;stroke:white;stroke-width:35.62px;"/>
                <path d="M1383.35,1648.52L1273.91,1648.52C1258.18,1648.52 1245.42,1635.77 1245.42,1620.03L1245.42,1203.09C1245.42,1187.36 1258.18,1174.6 1273.91,1174.6L1383.35,1174.6C1399.08,1174.6 1411.83,1187.36 1411.83,1203.09L1411.83,1620.03C1411.83,1635.77 1399.08,1648.52 1383.35,1648.52ZM1383.35,1131L1273.91,1131C1258.18,1131 1245.42,1118.25 1245.42,1102.51L1245.42,1018.89C1245.42,1003.16 1258.18,990.405 1273.91,990.405L1383.35,990.405C1399.08,990.405 1411.83,1003.16 1411.83,1018.89L1411.83,1102.51C1411.83,1118.25 1399.08,1131 1383.35,1131Z" style="fill:none;stroke:white;stroke-width:35.62px;"/>
                <path d="M1574.09,1648.52L1464.65,1648.52C1448.92,1648.52 1436.17,1635.77 1436.17,1620.03L1436.17,1018.89C1436.17,1003.16 1448.92,990.405 1464.65,990.405L1574.09,990.405C1589.83,990.405 1602.58,1003.16 1602.58,1018.89L1602.58,1620.03C1602.58,1635.77 1589.83,1648.52 1574.09,1648.52Z" style="fill:none;stroke:white;stroke-width:35.62px;"/>
                <path d="M1764.84,1648.52L1655.4,1648.52C1639.67,1648.52 1626.91,1635.77 1626.91,1620.03L1626.91,1018.89C1626.91,1003.16 1639.67,990.405 1655.4,990.405L1764.84,990.405C1780.57,990.405 1793.33,1003.16 1793.33,1018.89L1793.33,1620.03C1793.33,1635.77 1780.57,1648.52 1764.84,1648.52Z" style="fill:none;stroke:white;stroke-width:35.62px;"/>
                <path d="M1904.03,1357.05L1838.72,1356.81C1827.97,1356.77 1818.15,1350.68 1813.35,1341.07L1812.19,1338.75C1810.36,1335.1 1809.35,1331.1 1809.2,1327.02C1807.61,1282.17 1824,1243.89 1858.83,1212.4C1891.86,1182.54 1935.12,1166.89 1989.11,1166.89C2040.6,1166.89 2082.19,1182.51 2114.33,1212.52C2146.75,1242.79 2164.03,1285.49 2164.03,1341.43L2164.03,1510.21C2164.03,1529.15 2165.31,1546.8 2167.91,1563.14C2170.48,1579.26 2174.45,1595.13 2179.83,1610.78C2182.81,1619.49 2181.41,1629.1 2176.07,1636.59C2170.72,1644.07 2162.08,1648.52 2152.88,1648.52L2044.22,1648.52C2032.96,1648.52 2022.76,1641.89 2018.18,1631.6C2017.95,1631.08 2017.72,1630.55 2017.49,1630.02C2014.7,1632.25 2011.83,1634.37 2008.9,1636.38C1989.48,1649.73 1967,1656.61 1941.33,1656.61C1898.06,1656.61 1863.65,1641.86 1837.65,1613.44C1812.52,1585.97 1799.16,1549.55 1799.16,1503.66C1799.16,1453.39 1816.18,1414.68 1848.59,1386.86C1863.57,1374 1882.02,1363.95 1904.03,1357.05ZM1972.93,1517.17C1978.5,1517.17 1983.64,1515.68 1988.37,1512.7C1991.77,1510.55 1994.73,1508.05 1997.23,1505.15L1997.23,1465.87L1984.49,1465.87C1979.08,1465.87 1974.62,1466.41 1972.21,1470.15C1967.4,1477.61 1965.58,1487.21 1965.58,1498.65C1965.58,1505.54 1966.48,1511.34 1969.67,1515.68C1970.46,1516.75 1971.58,1517.17 1972.93,1517.17ZM1967.04,1346.5C1972.71,1346.22 1978.52,1346.08 1984.49,1346.08L1997.23,1346.08L1997.23,1340.66C1997.23,1327.34 1995.88,1316.87 1991.08,1309.7C1989.08,1306.73 1985.78,1305.95 1981.79,1305.95C1979.94,1305.95 1978.24,1305.68 1977.32,1306.99C1973.85,1311.9 1973.28,1319.31 1973.28,1328.71C1973.28,1335.21 1971.06,1341.48 1967.04,1346.5Z" style="fill:none;stroke:white;stroke-width:35.62px;"/>
                <path d="M2385.83,1179.01L2436.54,1048.64C2440.8,1037.69 2451.34,1030.48 2463.09,1030.48L2589.86,1030.48C2599.69,1030.48 2608.83,1035.55 2614.03,1043.88C2619.23,1052.22 2619.77,1062.65 2615.46,1071.48L2485.7,1336.87L2624.45,1607.02C2628.99,1615.85 2628.6,1626.4 2623.43,1634.88C2618.25,1643.35 2609.04,1648.52 2599.11,1648.52L2466.94,1648.52C2455.22,1648.52 2444.7,1641.34 2440.42,1630.44L2387.17,1494.71L2333.93,1630.44C2329.65,1641.34 2319.12,1648.52 2307.41,1648.52L2179.86,1648.52C2170.01,1648.52 2160.86,1643.44 2155.66,1635.08C2150.47,1626.71 2149.95,1616.26 2154.31,1607.43L2287.62,1337.13L2157.73,1071.48C2153.41,1062.65 2153.95,1052.22 2159.16,1043.88C2164.36,1035.55 2173.5,1030.48 2183.32,1030.48L2309.33,1030.48C2321.13,1030.48 2331.71,1037.76 2335.93,1048.78L2385.83,1179.01Z" style="fill:none;stroke:white;stroke-width:35.62px;"/>
            </g>
        </g>
    </g>
</svg>
